<svg xmlns="http://www.w3.org/2000/svg" width="142.292" height="154.665" viewBox="0 0 142.292 154.665">
  <g id="Group_1960" data-name="Group 1960" transform="translate(0 0)">
    <g id="Group_1889" data-name="Group 1889" transform="translate(0 0)">
      <g id="Group_1876" data-name="Group 1876" transform="translate(0 0)">
        <g id="Group_1" data-name="Group 1">
          <g id="Group_2" data-name="Group 2" transform="translate(0 26.17)">
            <path id="Path_1" data-name="Path 1" d="M59.767,56.28a4.857,4.857,0,0,1,0,2.184,9.2,9.2,0,0,1-2.519,6.211,14.212,14.212,0,0,1-5.4,3.344,24.337,24.337,0,0,1-6.633,1.3,39.312,39.312,0,0,1-6.2-.069,62.409,62.409,0,0,1-9.336-1.228q-.493-.134-2.211-.478a11.785,11.785,0,0,1-3.071-1.024,5.8,5.8,0,0,0,.983,1.092c.409.273.86.592,1.351.955a7.037,7.037,0,0,0,1.965.956q-1.106,1.913-2.211,3.89T24.14,77.438q3.317,1.366,7.249,3.276a74.278,74.278,0,0,1,7.739,4.368,55.39,55.39,0,0,1,7.126,5.46,27.492,27.492,0,0,1,5.4,6.62,20.9,20.9,0,0,1,2.641,7.78,18.239,18.239,0,0,1-1.167,8.8,37.745,37.745,0,0,1-2.149,4.5,29.112,29.112,0,0,1-3.256,4.641,51.4,51.4,0,0,1-9.03,8.122,26.171,26.171,0,0,1-11.364,4.573,26.846,26.846,0,0,1-4.607.136,23.145,23.145,0,0,1-3.869-.546,29.554,29.554,0,0,1-2.887-.819c-.78-.273-1.29-.455-1.536-.546a46.225,46.225,0,0,1-4.361-2.457,24.96,24.96,0,0,1-4.546-3.685,20.777,20.777,0,0,1-3.685-5.187,17.476,17.476,0,0,1-1.782-6.962,22.523,22.523,0,0,1,0-3.344,20.41,20.41,0,0,1,.614-3.753,1.153,1.153,0,0,0,.123-.41,1.131,1.131,0,0,1,.123-.409,12.585,12.585,0,0,1,1.413-3.413q.8-1.228,1.29-1.911a13.711,13.711,0,0,1,3.931-2.525,18,18,0,0,1,5.774-1.3h.983a4.985,4.985,0,0,1,2.4.409,1.24,1.24,0,0,1,.676,1.092,3.192,3.192,0,0,1-.615,1.637q-.737.957-1.6,2.252a20.575,20.575,0,0,0-1.6,2.935q-.248.547-.8,1.842t-1.106,3a28.716,28.716,0,0,0-.921,3.753,17.172,17.172,0,0,0-.246,4.1,18.456,18.456,0,0,0,.43,2.661,7.162,7.162,0,0,0,1.044,2.389,9.283,9.283,0,0,0,.983,1.229c.245.183.491.364.737.545a5.107,5.107,0,0,0,.982.546,12.01,12.01,0,0,0,4.484.614,19.782,19.782,0,0,0,5.712-1.092,27.774,27.774,0,0,0,12.531-8.8,21.666,21.666,0,0,0,3.808-6.689,16.318,16.318,0,0,0,.553-6.893q-.432-3.89-3.992-8.122a33.931,33.931,0,0,0-8.231-7.1,77.457,77.457,0,0,0-8.968-4.777q-1.23-.544-2.4-1.023a20.105,20.105,0,0,0-2.15-.752,3.874,3.874,0,0,1-2.58-1.842,4.423,4.423,0,0,1-.369-2.253,6.131,6.131,0,0,1,.983-2.73q1.719-2.729,3.379-5.119t3.132-4.709q.982-1.363,1.843-2.525t1.6-2.252a4.432,4.432,0,0,1,1.6-1.5,9.881,9.881,0,0,1,2.027-.956,7.11,7.11,0,0,1,2.887-.273q.982.137,2.088.205c.737.046,1.474.068,2.211.068a25.854,25.854,0,0,0,2.641.137h2.642a66.769,66.769,0,0,0,7.371-.41A9.551,9.551,0,0,0,51.6,56.417a4.492,4.492,0,0,0,1.9-4.231,1.566,1.566,0,0,1,.246-.819,1.239,1.239,0,0,1,1.474-.41,9.907,9.907,0,0,1,2.948,1.979,5.252,5.252,0,0,1,1.6,3.208Z" transform="translate(0 -50.879)" fill="#fff"/>
            <g id="Group_1-2" data-name="Group 1" transform="translate(58.649 6.164)">
              <path id="Path_2" data-name="Path 2" d="M145.076,134.668a25.2,25.2,0,0,1-8.661.136,16.246,16.246,0,0,1-6.88-2.73,11.552,11.552,0,0,1-4.484-6.552q-1.289-4.367.061-11.262t6.757-16.994A46.471,46.471,0,0,1,142.251,83.48,51.08,51.08,0,0,1,153,76.246c4.665-2.29,8.872-2.163,11.772-1.073a10.116,10.116,0,0,0-3.125.165c-3.293.721-5.043,4.014-2.264,3.959a11.908,11.908,0,0,1,8.359,4.208c3.032,3.894,4.839,12.85,3.734,21.937a8.535,8.535,0,0,1,1.46-.217c.7-.05,1.54-.063,2.464-.039.307.009.59.058.884.088,1.763-9.492.9-17.813-1.742-23.17a14.658,14.658,0,0,0,.94-3.81,12.724,12.724,0,0,0-2.825-8.4,17.991,17.991,0,0,0-5.528-4.572,27.137,27.137,0,0,0-7.863-2.457,29.876,29.876,0,0,0-12.9,2.184,44.512,44.512,0,0,0-5.958,3.208,42.533,42.533,0,0,0-6.389,5.051,57.128,57.128,0,0,0-6.51,7.439,72.873,72.873,0,0,0-6.327,10.374q-5.776,12.013-6.879,22.249a36.584,36.584,0,0,0,.061,8.736,20.446,20.446,0,0,0,2.764,8.054,20.235,20.235,0,0,0,6.326,6.415,28.984,28.984,0,0,0,10.873,3.958,33.363,33.363,0,0,0,11.179.273,31.615,31.615,0,0,0,8.129-2.43c-.025-.28-.063-.554-.063-.846a21.225,21.225,0,0,1,.162-2.6,20.721,20.721,0,0,1,.879-3.853c-.251.146-.5.312-.752.449A29.646,29.646,0,0,1,145.076,134.668Z" transform="translate(-114.071 -62.813)" fill="#fff"/>
              <path id="Path_3" data-name="Path 3" d="M237.177,154.1a6.17,6.17,0,0,0-2.15-.478,24.011,24.011,0,0,0-3.139,0c-.85.049-1.725.136-2.6.221.117-.155.243-.325.345-.46a1.81,1.81,0,0,0,.342-.819.849.849,0,0,0-.137-.478,1.835,1.835,0,0,0-.478-.341,7.8,7.8,0,0,0-2.252-.376q-1.23-.033-2.185.035a4.791,4.791,0,0,0-1.911.546,7.282,7.282,0,0,0-.614.546c-.545.635-1.217,1.531-1.993,2.639-.732.137-1.469.277-2.238.432a5.942,5.942,0,0,1-1.058.17,6.056,6.056,0,0,0-1.058.171q.545-.751,1.023-1.4t.819-1.127a1.816,1.816,0,0,0,.342-.819.849.849,0,0,0-.137-.478,1.834,1.834,0,0,0-.478-.341,7.083,7.083,0,0,0-2.184-.376q-1.228-.033-2.184.035a3.67,3.67,0,0,0-1.911.546,7.143,7.143,0,0,0-.615.546,18.785,18.785,0,0,0-1.228,1.57q-.683.957-1.5,2.184a15.442,15.442,0,0,1-2.867-.58,9.489,9.489,0,0,1-1.911-.819,3.986,3.986,0,0,1-1.127-.922,7.983,7.983,0,0,1-.579-.819.747.747,0,0,0-.547-.341H200.7a2.354,2.354,0,0,0-.853.512,5.63,5.63,0,0,0-.512.58,1.6,1.6,0,0,0-.341.683,3.075,3.075,0,0,0,1.058,3.344q1.6,1.433,5.7,1.843-.886,1.366-1.741,2.8t-1.672,2.935q-.614,1.023-1.4,2.491T199.4,171.13q-.752,1.706-1.366,3.515a17.4,17.4,0,0,0-.819,3.515,17.609,17.609,0,0,0-.136,2.184,4.963,4.963,0,0,0,.34,1.911.2.2,0,0,1,.069.136h.068v.136a.061.061,0,0,1,.068.069l.068.068v.068a.061.061,0,0,1,.069.069l.068.068a.061.061,0,0,0,.068.069,2.92,2.92,0,0,0,1.3.955,1.981,1.981,0,0,0,.751.137,6.664,6.664,0,0,0,4.027-.785,17.421,17.421,0,0,0,3.822-2.7c.041-.038.074-.078.115-.116-.019.179-.039.359-.047.526a6.028,6.028,0,0,0,.273,2.32.2.2,0,0,1,.068.137c0,.045.046.091.137.136a2.361,2.361,0,0,0,.819.58,4.273,4.273,0,0,0,1.843.307,1,1,0,0,0,.751-.375,4.421,4.421,0,0,0,.273-.443,25.1,25.1,0,0,1,.751-2.525q.477-1.364,1.161-2.867.409-.886,1.433-2.7a33.658,33.658,0,0,1,2.355-3.584,16.422,16.422,0,0,1,2.866-3,3.82,3.82,0,0,1,3.1-.956.846.846,0,0,1,.615.41,2.546,2.546,0,0,1,.136.921,3.377,3.377,0,0,1-.545,1.536l-.136.274v.068q-.615,1.229-1.263,2.525a20.254,20.254,0,0,0-1.775,5.221,7.952,7.952,0,0,0-.1,2.423,2.756,2.756,0,0,0,.615,1.433,4.6,4.6,0,0,0,1.023.887,6.087,6.087,0,0,0,1.366.546,5.364,5.364,0,0,0,3.787-.751,14.517,14.517,0,0,0,3.31-2.764,23.08,23.08,0,0,0,2.627-3.549q1.127-1.877,1.809-3.105a3.271,3.271,0,0,0,.17-.989q.033-.648-.785-.853a.953.953,0,0,0-.751.034,4.022,4.022,0,0,0-.615.376,3.213,3.213,0,0,0-.478.614q-.546.752-1.3,1.809a19.816,19.816,0,0,1-1.536,1.911,7.407,7.407,0,0,1-1.57,1.331q-.784.478-1.263.068-.613-.409-.1-1.808t1.263-3.105q.272-.545.512-1.126a7.41,7.41,0,0,1,.581-1.127,7.963,7.963,0,0,0,1.058-3.72,3.4,3.4,0,0,0-.785-2.082,3.787,3.787,0,0,0-2.116-1.092,8,8,0,0,0-3.447.205,12.31,12.31,0,0,0-3.1,1.365c-.092.046-.319.194-.682.444a10.628,10.628,0,0,0-1.263,1.058q-.717.683-1.5,1.57a7.474,7.474,0,0,0-1.263,1.979,9.668,9.668,0,0,1,1.091-2.457,11.23,11.23,0,0,1,1.706-2.116,8.924,8.924,0,0,1,2.867-1.842c1.435-2.216,2.8-4.236,4.11-6.082,2.037-.026,3.75.008,5.1.11a30.667,30.667,0,0,1,3.447.409,3.739,3.739,0,0,0,1.6.1,1.482,1.482,0,0,0,.751-.716,5.38,5.38,0,0,0,.546-1.331,10.052,10.052,0,0,0,.41-1.843Q237.961,154.478,237.177,154.1Zm-22.114,9.555q-2.082,3.652-3.924,7.371c-.56,1.132-1.04,2.2-1.459,3.209-.216.251-.448.508-.724.783a21.329,21.329,0,0,1-2.013,1.775,11.106,11.106,0,0,1-2.081,1.3,2.294,2.294,0,0,1-1.638.273c-.046,0-.069-.022-.069-.068q-.477-.272-.273-1.058a6.917,6.917,0,0,1,.478-1.331q1.978-3.89,4.539-7.917t4.88-7.439a13.029,13.029,0,0,1-3.31-.239q-1.33-.308-1.808-.444,1.433,0,3.106-.069t3.651-.273l1.126-.136q.58-.067,1.126-.136c.388-.057.745-.1,1.119-.151C216.889,160.535,215.982,162.047,215.063,163.656Z" transform="translate(-154.203 -105.623)" fill="#fff"/>
            </g>
          </g>
          <g id="Group_3" data-name="Group 3" transform="translate(17.681)">
            <path id="Path_4" data-name="Path 4" d="M34.23,31.8l3.63-2.727a6.368,6.368,0,0,1,2.673-1.231,4.648,4.648,0,0,1,2.6.231,5.325,5.325,0,0,1,3.156,4.2,4.642,4.642,0,0,1-.5,2.565,6.367,6.367,0,0,1-1.927,2.224l-3.63,2.727Zm8.4,3.813a3.356,3.356,0,0,0,1.41-2.1,3.315,3.315,0,0,0-2.719-3.618,3.36,3.36,0,0,0-2.414.769l-1.689,1.27,3.723,4.954Z" transform="translate(-34.23 -13.417)" fill="#fff"/>
            <path id="Path_5" data-name="Path 5" d="M74.48,19l-4.234,1.9.068,2.317-2.162.97-.025-10.942,2.084-.935L78.38,19.6l-2.215.993ZM73.1,17.7l-3.012-2.843.12,4.14Z" transform="translate(-50.618 -5.951)" fill="#fff"/>
            <path id="Path_6" data-name="Path 6" d="M96.5,8.8l.772,3.455-2.257.5-.779-3.484L89.056,3.845l2.4-.536,3.574,3.751,1.637-4.916,2.215-.495Z" transform="translate(-60.736 -0.798)" fill="#fff"/>
            <path id="Path_7" data-name="Path 7" d="M121.722,2.043l-3.2.092L118.471.252,127.176,0l.054,1.884-3.2.092.235,8.106-2.313.067Z" transform="translate(-74.957)" fill="#fff"/>
            <path id="Path_8" data-name="Path 8" d="M147.574,11.145a4.988,4.988,0,0,1-1.6-2.167,5.055,5.055,0,0,1-.225-2.731,5.058,5.058,0,0,1,1.166-2.481,4.978,4.978,0,0,1,2.253-1.473,6.186,6.186,0,0,1,5.515.994,5,5,0,0,1,1.83,4.9,5,5,0,0,1-3.426,3.952,5.791,5.791,0,0,1-2.872.164A5.832,5.832,0,0,1,147.574,11.145Zm4.637-.9a2.927,2.927,0,0,0,1.305-.918,3.337,3.337,0,0,0,.694-1.558,3.335,3.335,0,0,0-.106-1.7,2.922,2.922,0,0,0-.9-1.316,3.343,3.343,0,0,0-3.147-.568,2.917,2.917,0,0,0-1.3.918,3.351,3.351,0,0,0-.695,1.558,3.347,3.347,0,0,0,.107,1.7,2.918,2.918,0,0,0,.9,1.316,3.346,3.346,0,0,0,3.147.567Z" transform="translate(-88.103 -0.978)" fill="#fff"/>
            <path id="Path_9" data-name="Path 9" d="M187.509,12.686l-3.991,9.162-1.741-.758-2.145-7.553L177.209,19.1l-2.1-.912,3.992-9.162,1.754.764,2.132,7.548,2.424-5.563Z" transform="translate(-102.342 -4.363)" fill="#fff"/>
            <path id="Path_10" data-name="Path 10" d="M207.234,36.222,203.5,33.474l-1.982,1.2-1.909-1.4,9.508-5.414,1.84,1.353-2.319,10.7-1.955-1.438Zm.454-1.846.989-4.021L205.134,32.5Z" transform="translate(-114.183 -13.468)" fill="#fff"/>
          </g>
          <g id="Group_4" data-name="Group 4" transform="translate(9.272 120.263)">
            <path id="Path_11" data-name="Path 11" d="M25.066,249.111l-3.3-3.266-2.136.9-1.684-1.668,10.2-3.966,1.623,1.607-3.858,10.245-1.725-1.707Zm.719-1.76,1.567-3.834-3.818,1.6Z" transform="translate(-17.95 -237.127)" fill="#fff"/>
            <path id="Path_12" data-name="Path 12" d="M52.009,257.613l-5.678,8.224-1.563-1.079-.653-7.824-3.447,4.993-1.88-1.3,5.678-8.224,1.574,1.087.641,7.817,3.447-4.993Z" transform="translate(-28.024 -242.588)" fill="#fff"/>
            <path id="Path_13" data-name="Path 13" d="M74.18,269.22l-4.1,9.116-1.732-.778-2.058-7.578-2.487,5.535-2.083-.936,4.1-9.116,1.745.785,2.045,7.571,2.488-5.535Z" transform="translate(-39.173 -248.901)" fill="#fff"/>
            <path id="Path_14" data-name="Path 14" d="M89.32,274.536l2.218.655L88.7,284.775l-2.219-.656Z" transform="translate(-51.172 -253.287)" fill="#fff"/>
            <path id="Path_15" data-name="Path 15" d="M110.593,278.9l-5.866,9.176-2.255-.365L99.81,277.152l2.467.4,1.862,7.532,4.184-6.555Z" transform="translate(-57.637 -254.552)" fill="#fff"/>
            <path id="Path_16" data-name="Path 16" d="M131.714,288.674l-.03,1.856-7.737-.126.162-9.993,7.552.122-.03,1.856-5.253-.086-.036,2.171,4.64.075-.029,1.8-4.64-.076-.037,2.313Z" transform="translate(-69.334 -256.128)" fill="#fff"/>
            <path id="Path_17" data-name="Path 17" d="M151.918,288.311l-2.338-2.449-.113.017-1.989.314.434,2.751-2.284.359-1.556-9.872,4.273-.674a5.55,5.55,0,0,1,2.346.079,3.416,3.416,0,0,1,1.684,1.006,3.463,3.463,0,0,1,.822,1.821,3.257,3.257,0,0,1-1.54,3.438l2.714,2.824Zm-1.771-7.474a2.423,2.423,0,0,0-1.635-.2l-1.863.294.542,3.441,1.862-.293a2.4,2.4,0,0,0,1.494-.7,1.8,1.8,0,0,0-.4-2.544Z" transform="translate(-79.095 -255.286)" fill="#fff"/>
            <path id="Path_18" data-name="Path 18" d="M169.793,283.643a5.369,5.369,0,0,1-1.949-.244l.207-1.9a5.374,5.374,0,0,0,1.687.247,5.766,5.766,0,0,0,1.772-.277,2.819,2.819,0,0,0,1.294-.729.881.881,0,0,0,.207-.885.743.743,0,0,0-.448-.477,2.115,2.115,0,0,0-.8-.139q-.459,0-1.217.066a16.341,16.341,0,0,1-1.946.064,3.041,3.041,0,0,1-1.458-.441,2.354,2.354,0,0,1-.991-1.361,2.779,2.779,0,0,1-.04-1.646,3.166,3.166,0,0,1,1-1.505A5.794,5.794,0,0,1,169.2,273.3a7.748,7.748,0,0,1,1.849-.362,5.532,5.532,0,0,1,1.724.13l-.135,1.89a5.562,5.562,0,0,0-2.876.112,2.59,2.59,0,0,0-1.267.742.958.958,0,0,0-.185.931.811.811,0,0,0,.745.561,8.45,8.45,0,0,0,1.706-.038,16.584,16.584,0,0,1,1.947-.064,3.106,3.106,0,0,1,1.453.428,2.3,2.3,0,0,1,.986,1.345,2.721,2.721,0,0,1,.029,1.635,3.21,3.21,0,0,1-1.017,1.51,5.843,5.843,0,0,1-2.085,1.114A8.126,8.126,0,0,1,169.793,283.643Z" transform="translate(-89.728 -252.509)" fill="#fff"/>
            <path id="Path_19" data-name="Path 19" d="M195.861,271.476l-4.124,2.129.2,2.309L189.826,277l-.624-10.923,2.03-1.048,8.554,6.831-2.158,1.113Zm-1.453-1.226-3.163-2.674.346,4.127Z" transform="translate(-101.017 -248.691)" fill="#fff"/>
            <path id="Path_20" data-name="Path 20" d="M214.781,259.606l-3.215-1.062-.092.069-1.607,1.212,1.677,2.223-1.847,1.393-6.018-7.978,3.454-2.606a5.565,5.565,0,0,1,2.106-1.035,3.432,3.432,0,0,1,1.96.1,3.474,3.474,0,0,1,1.582,1.221,3.252,3.252,0,0,1,.258,3.757l3.725,1.215Zm-5.08-5.763a2.429,2.429,0,0,0-1.536.6l-1.505,1.135,2.1,2.781,1.505-1.135a2.4,2.4,0,0,0,.99-1.319,1.8,1.8,0,0,0-1.553-2.057Z" transform="translate(-108.016 -242.258)" fill="#fff"/>
            <path id="Path_21" data-name="Path 21" d="M227.7,240.672l2.55,2.456-1.6,1.667-2.571-2.476-7.313-1.668,1.7-1.769,5.051,1.156-1.347-5,1.574-1.635Z" transform="translate(-115.311 -233.399)" fill="#fff"/>
          </g>
          <g id="Group_6" data-name="Group 6" transform="translate(37.339 118.222)">
            <g id="Group_5" data-name="Group 5">
              <path id="Path_22" data-name="Path 22" d="M77.71,231.644a2.106,2.106,0,0,0-1.95-.981c-.93,0-1.479.419-1.479,1.178,0,.864.681,1.2,1.937,1.479,1.819.393,2.761,1.073,2.761,2.7,0,1.348-.9,2.591-3.075,2.591a3.862,3.862,0,0,1-3.377-1.479l1.191-.824a2.419,2.419,0,0,0,2.107.981c1.243,0,1.635-.55,1.635-1.2,0-.72-.406-1.164-1.976-1.5-1.741-.366-2.722-1.2-2.722-2.735,0-1.361.889-2.5,3.01-2.5a3.371,3.371,0,0,1,3.088,1.479Z" transform="translate(-72.528 -229.341)" fill="#fff"/>
              <path id="Path_23" data-name="Path 23" d="M89.757,238.6H88.239V229.57h1.518Z" transform="translate(-80.124 -229.452)" fill="#fff"/>
              <path id="Path_24" data-name="Path 24" d="M101.747,229.57V238.6H100.4l-3.677-6.137V238.6H95.256V229.57h1.309l3.716,6.215V229.57Z" transform="translate(-83.516 -229.452)" fill="#fff"/>
              <path id="Path_25" data-name="Path 25" d="M116.162,232.259a1.718,1.718,0,0,0-1.819-1.6c-1.2,0-1.858.785-1.858,2.735v1.152c0,1.923.654,2.735,1.858,2.735a1.7,1.7,0,0,0,1.819-1.6h1.452a3.023,3.023,0,0,1-3.271,2.918c-2.014,0-3.376-1.217-3.376-4.056V233.4c0-2.84,1.362-4.057,3.376-4.057a3.077,3.077,0,0,1,3.284,2.918Z" transform="translate(-91.112 -229.341)" fill="#fff"/>
              <path id="Path_26" data-name="Path 26" d="M132.087,229.57v1.321h-4.018v2.382h3.625v1.308h-3.625v2.709h4.018V238.6h-5.536V229.57Z" transform="translate(-98.646 -229.452)" fill="#fff"/>
              <path id="Path_27" data-name="Path 27" d="M144.11,238.6h-1.518v-7.394l-1.3.89v-1.531l1.387-.994h1.427Z" transform="translate(-105.775 -229.452)" fill="#fff"/>
              <path id="Path_28" data-name="Path 28" d="M155.77,234.654a1.813,1.813,0,0,1-.865.183,2.487,2.487,0,0,1-2.433-2.683,2.847,2.847,0,0,1,5.692-.026,6.363,6.363,0,0,1-.733,2.369l-1.832,3.991H153.95Zm-.459-3.991a1.458,1.458,0,1,0,1.335,1.453A1.295,1.295,0,0,0,155.311,230.663Z" transform="translate(-111.178 -229.341)" fill="#fff"/>
              <path id="Path_29" data-name="Path 29" d="M166.155,232.37v-2.8h5.313v1.164l-2.709,7.865h-1.583l2.722-7.708h-2.433v1.479Z" transform="translate(-117.793 -229.452)" fill="#fff"/>
              <path id="Path_30" data-name="Path 30" d="M184.407,238.488H178.95v-1.073l3.1-3.638a2.984,2.984,0,0,0,.916-1.9,1.283,1.283,0,0,0-2.566,0h-1.387a2.735,2.735,0,0,1,5.458.026,4.453,4.453,0,0,1-1.361,2.722l-2.133,2.552h3.428Z" transform="translate(-123.979 -229.341)" fill="#fff"/>
            </g>
          </g>
        </g>
      </g>
    </g>
  </g>
</svg>
