<svg xmlns="http://www.w3.org/2000/svg" width="206.941" height="35.998" viewBox="0 0 206.941 35.998">
  <g id="Group_1518" data-name="Group 1518" transform="translate(0 -1.407)">
    <g id="Group_1516" data-name="Group 1516" transform="translate(0 4.259)">
      <g id="Group_1515" data-name="Group 1515" transform="translate(0 0)">
        <path id="Path_42" data-name="Path 42" d="M15.436,5.55,28.49,5.544c6.246,0,9.168,4.822,6.6,10.45L28.14,30.843C26.357,35,22.693,38.688,15.8,38.676L0,38.688l2.437-5.275a2.9,2.9,0,0,0,2.23-1.738c8.583-18.325.153-.325,8.658-18.585.756-1.62-.611-1.677-.611-1.677Zm8.106,6.2-9.98,21.3h1.923a3.941,3.941,0,0,0,3.041-1.991l7.883-16.989a1.494,1.494,0,0,0-1.164-2.324Z" transform="translate(0 -5.542)" fill="#fff"/>
        <path id="Path_43" data-name="Path 43" d="M90.672,5.541h11.839l-2.328,4.925.015,2.925c0,.685.106.8.771.181l2.937-3.1,2.34-4.929H116.6l-2.666,5.622a2.325,2.325,0,0,0-1.671.558L98.648,25.992,96.4,30.711c-.823,2.014.307,2.6,1.064,2.6l-2.483,5.372H81.007l2.556-5.514a3.187,3.187,0,0,0,3.093-1.678l2.929-6.406-.106-11.83A1.554,1.554,0,0,0,87.916,11.5Z" transform="translate(-25.128 -5.541)" fill="#fff"/>
        <path id="Path_44" data-name="Path 44" d="M131.925,5.555l-6.75,14.535h7.064L135,14.1c.545-1.4,2.014-2.685,3.385-2.474l-9.137,19.435a3.061,3.061,0,0,1-2.994,1.811l-2.728,5.813h13.953l2.492-5.363s-1.642-.5-.949-1.943l9.132-19.532c.962,0,1.488,1.379.939,2.565L146.439,20.1h6.934l6.846-14.555Z" transform="translate(-38.316 -5.541)" fill="#fff"/>
        <path id="Path_45" data-name="Path 45" d="M210.167,5.556H221l.637,13.82,3.206-6.8c.748-1.571-1.211-1.395-1.211-1.395l2.627-5.641h11.122l-2.8,5.875a2.464,2.464,0,0,0-2.361,1.043L219.511,38.688h-9.63l-.341-15.461-3.812,7.932c-.615,1.5.676,1.626.676,1.626l-2.722,5.9h-8.907l2.667-5.843c.906,0,1.859-1.32,1.859-1.32l8.733-18.178A1.368,1.368,0,0,0,207.4,11.5Z" transform="translate(-60.418 -5.542)" fill="#fff"/>
        <path id="Path_46" data-name="Path 46" d="M161.887,31.183l9.208-19.332c1.149-2.185,5.181-6.307,10.523-6.307H189.4c3.886,0,6.956,3.887,5.521,7.063l-9.5,20.209c-1.484,3.129-4.7,5.873-7.644,5.873H165.825c-3.077-.006-5.591-3.747-3.938-7.506m11.329-.7c-1.06,2.358,1.775,3.177,2.809,1.131l8.074-17.3a1.531,1.531,0,0,0-2.862-1.077Z" transform="translate(-50.054 -5.542)" fill="#fff"/>
        <path id="Path_47" data-name="Path 47" d="M51.967,38.692l2.608-5.623a2.081,2.081,0,0,0,2.1-1.573l.442-1.751-5.3,0-.9,1.266a1.233,1.233,0,0,0,.647,2.04l-2.669,5.638H37.636l2.506-5.318a1.783,1.783,0,0,0,1.464-.79L59.341,5.555H73.867l-6.8,25.639a1.123,1.123,0,0,0,.9,1.543l-2.762,5.947ZM60.16,17.327l-4.442,6.7,2.879.025Z" transform="translate(-11.675 -5.545)" fill="#fff"/>
        <path id="Path_48" data-name="Path 48" d="M249.588,38.684l2.781-5.96a2.157,2.157,0,0,0,2.216-1.235l.44-1.748h-5.941l-.728.975c-.421,1.188,1,2.008,1,2.008l-2.845,5.96H235.256l2.5-5.312a1.792,1.792,0,0,0,1.467-.793L256.874,5.548h14.262l-6.769,25.521a1.264,1.264,0,0,0,1.221,1.66l-2.763,5.948Zm9.1-23.352-5.637,8.576,3.638-.008Z" transform="translate(-72.975 -5.543)" fill="#fff"/>
      </g>
    </g>
    <g id="Group_1517" data-name="Group 1517" transform="translate(201.228 1.407)">
      <path id="Path_49" data-name="Path 49" d="M296.2,6.4c-.063-.1-.12-.21-.126-.706-.01-.525-.17-.674-.647-.674h-1.1V6.4H293.7V3.077h1.813c.824,0,1.273.369,1.273.92a.812.812,0,0,1-.142.46.727.727,0,0,1-.5.3c.37.09.552.2.563.873.012.583.108.65.29.771Zm-.677-2.869h-1.193V4.564h1.187a.584.584,0,0,0,.631-.531c0-.168-.091-.5-.626-.5" transform="translate(-292.332 -1.925)" fill="#fff"/>
      <path id="Path_50" data-name="Path 50" d="M291.717,4.263a2.857,2.857,0,1,1,2.856,2.856,2.856,2.856,0,0,1-2.856-2.856m.43,0a2.427,2.427,0,1,0,2.427-2.429,2.431,2.431,0,0,0-2.427,2.429" transform="translate(-291.717 -1.407)" fill="#fff"/>
    </g>
  </g>
</svg>
