<svg xmlns="http://www.w3.org/2000/svg" width="200" height="34.791" viewBox="0 0 200 34.791">
  <g id="Group_1537" data-name="Group 1537" transform="translate(-392 133.395)">
    <g id="Group_1536" data-name="Group 1536" transform="translate(-240.069 -446.763)">
      <g id="Group_1534" data-name="Group 1534" transform="translate(632.069 316.124)">
        <g id="Group_1533" data-name="Group 1533">
          <path id="Path_53" data-name="Path 53" d="M646.987,314.457l12.617-.005c6.036,0,8.859,4.66,6.378,10.1l-6.716,14.35c-1.723,4.021-5.265,7.581-11.93,7.568l-15.267.013,2.357-5.1a2.8,2.8,0,0,0,2.153-1.68c8.3-17.71.15-.316,8.37-17.962.73-1.568-.59-1.621-.59-1.621Zm7.836,6-9.648,20.588h1.86a3.809,3.809,0,0,0,2.939-1.924l7.619-16.419a1.443,1.443,0,0,0-1.127-2.245Z" transform="translate(-632.069 -314.449)" fill="#e96b00"/>
          <path id="Path_54" data-name="Path 54" d="M662.632,314.451h11.442l-2.252,4.761.015,2.827c0,.662.1.774.746.176l2.84-3,2.26-4.764h10.009l-2.575,5.433a2.257,2.257,0,0,0-1.616.539l-13.159,13.793-2.171,4.56c-.8,1.947.3,2.512,1.028,2.512l-2.4,5.191H653.29l2.471-5.329a3.081,3.081,0,0,0,2.99-1.621l2.83-6.192-.1-11.434a1.5,1.5,0,0,0-1.512-1.69Z" transform="translate(-599.286 -314.451)" fill="#e96b00"/>
          <path id="Path_55" data-name="Path 55" d="M672.549,314.466l-6.522,14.047h6.825l2.664-5.789c.527-1.354,1.947-2.593,3.273-2.39l-8.831,18.784a2.961,2.961,0,0,1-2.894,1.751l-2.636,5.616h13.483l2.41-5.181s-1.588-.483-.919-1.878l8.826-18.878c.929,0,1.438,1.333.908,2.479l-2.56,5.492h6.7l6.617-14.068Z" transform="translate(-582.079 -314.451)" fill="#e96b00"/>
          <path id="Path_56" data-name="Path 56" d="M697.97,314.465H708.44l.616,13.355,3.1-6.568c.72-1.517-1.171-1.346-1.171-1.346l2.537-5.454h10.75l-2.7,5.678a2.379,2.379,0,0,0-2.28,1.008L707,346.484h-9.309l-.331-14.941-3.682,7.665c-.6,1.448.654,1.573.654,1.573l-2.631,5.7h-8.609l2.578-5.644c.875,0,1.8-1.277,1.8-1.277l8.441-17.567a1.321,1.321,0,0,0-.616-1.779Z" transform="translate(-553.245 -314.449)" fill="#e96b00"/>
          <path id="Path_57" data-name="Path 57" d="M674.848,339.231l8.9-18.684c1.112-2.11,5.008-6.095,10.172-6.095h7.517c3.754,0,6.721,3.756,5.334,6.825l-9.182,19.532c-1.435,3.023-4.54,5.675-7.387,5.675H678.652c-2.972-.005-5.4-3.621-3.8-7.253m10.948-.679c-1.023,2.28,1.715,3.069,2.715,1.092l7.8-16.717a1.48,1.48,0,0,0-2.766-1.041Z" transform="translate(-566.766 -314.449)" fill="#e96b00"/>
          <path id="Path_58" data-name="Path 58" d="M655.778,346.479l2.519-5.433a2.012,2.012,0,0,0,2.028-1.519l.427-1.692-5.123,0-.87,1.221a1.191,1.191,0,0,0,.624,1.972l-2.578,5.448H641.929l2.42-5.138a1.727,1.727,0,0,0,1.415-.763l17.14-26.123h14.04l-6.571,24.779a1.085,1.085,0,0,0,.87,1.491l-2.67,5.746Zm7.917-20.649L659.4,332.31l2.782.025Z" transform="translate(-616.837 -314.445)" fill="#e96b00"/>
          <path id="Path_59" data-name="Path 59" d="M707.55,346.477l2.688-5.759a2.087,2.087,0,0,0,2.143-1.193l.425-1.69h-5.741l-.7.942c-.407,1.148.964,1.942.964,1.942l-2.751,5.759H693.7l2.42-5.133a1.736,1.736,0,0,0,1.418-.766l17.056-26.125h13.783l-6.54,24.665a1.22,1.22,0,0,0,1.178,1.606l-2.669,5.746Zm8.79-22.568-5.446,8.289,3.514-.008Z" transform="translate(-536.862 -314.448)" fill="#e96b00"/>
        </g>
      </g>
      <g id="Group_1535" data-name="Group 1535" transform="translate(826.546 313.368)">
        <path id="Path_60" data-name="Path 60" d="M711.426,317.018c-.059-.092-.114-.2-.122-.682-.008-.509-.163-.651-.623-.651h-1.061v1.333h-.611v-3.212h1.753c.8,0,1.232.356,1.232.888a.778.778,0,0,1-.14.445.707.707,0,0,1-.484.29c.359.087.534.188.545.842.01.562.1.629.28.746Zm-.654-2.774h-1.153v1h1.148a.567.567,0,0,0,.611-.514c0-.163-.089-.486-.606-.486" transform="translate(-707.687 -312.691)" fill="#e96b00"/>
        <path id="Path_61" data-name="Path 61" d="M708.489,316.129a2.761,2.761,0,1,1,2.761,2.761,2.762,2.762,0,0,1-2.761-2.761m.415,0a2.346,2.346,0,1,0,2.346-2.346,2.349,2.349,0,0,0-2.346,2.346" transform="translate(-708.489 -313.368)" fill="#e96b00"/>
      </g>
    </g>
  </g>
</svg>
