<svg id="Group_1900" data-name="Group 1900" xmlns="http://www.w3.org/2000/svg" width="242.676" height="29.656" viewBox="0 0 242.676 29.656">
  <g id="Group_1896" data-name="Group 1896">
    <g id="Group_1895" data-name="Group 1895">
      <g id="Group_1891" data-name="Group 1891" transform="translate(0 10.214)">
        <path id="Path_161" data-name="Path 161" d="M559.515,379.11h4.038a5.673,5.673,0,0,1,2.56.553,4.142,4.142,0,0,1,1.727,1.556,4.738,4.738,0,0,1,0,4.673,4.142,4.142,0,0,1-1.727,1.556,5.686,5.686,0,0,1-2.56.552h-4.038Zm3.938,7.2a2.987,2.987,0,0,0,2.127-.743,2.951,2.951,0,0,0,0-4.026,2.991,2.991,0,0,0-2.127-.743h-1.88v5.513Z" transform="translate(-559.515 -378.958)" fill="#fff"/>
        <path id="Path_162" data-name="Path 162" d="M577.156,386.1h-4.128l-.787,1.9h-2.109l3.962-8.89h2.032L580.1,388h-2.159Zm-.648-1.562-1.41-3.4-1.409,3.4Z" transform="translate(-559.668 -378.958)" fill="#fff"/>
        <path id="Path_163" data-name="Path 163" d="M586.172,384.851V388h-2.058v-3.175l-3.442-5.716h2.185l2.374,3.95,2.375-3.95h2.02Z" transform="translate(-559.819 -378.958)" fill="#fff"/>
        <path id="Path_164" data-name="Path 164" d="M593.581,380.788h-2.844V379.11h7.748v1.678h-2.845V388h-2.058Z" transform="translate(-559.964 -378.958)" fill="#fff"/>
        <path id="Path_165" data-name="Path 165" d="M602.678,387.554a4.43,4.43,0,0,1-1.74-1.644,4.733,4.733,0,0,1,0-4.711,4.426,4.426,0,0,1,1.74-1.645,5.5,5.5,0,0,1,4.985,0,4.534,4.534,0,0,1,0,8,5.5,5.5,0,0,1-4.985,0Zm3.919-1.517a2.6,2.6,0,0,0,1-1.01,3.173,3.173,0,0,0,0-2.946,2.6,2.6,0,0,0-1-1.009,2.972,2.972,0,0,0-2.846,0,2.582,2.582,0,0,0-1,1.009,3.18,3.18,0,0,0,0,2.946,2.591,2.591,0,0,0,1,1.01,2.979,2.979,0,0,0,2.846,0Z" transform="translate(-560.101 -378.956)" fill="#fff"/>
        <path id="Path_166" data-name="Path 166" d="M621.194,379.11V388H619.5l-4.432-5.4V388H613.04v-8.89h1.7l4.419,5.4v-5.4Z" transform="translate(-560.284 -378.958)" fill="#fff"/>
        <path id="Path_167" data-name="Path 167" d="M630.579,386.1h-4.128l-.787,1.9h-2.108l3.962-8.89h2.032l3.975,8.89h-2.159Zm-.648-1.562-1.41-3.4-1.409,3.4Z" transform="translate(-560.435 -378.958)" fill="#fff"/>
      </g>
      <g id="Group_1892" data-name="Group 1892" transform="translate(78.489)">
        <path id="Path_168" data-name="Path 168" d="M660.006,370.478a1.689,1.689,0,0,1,0,.762,3.214,3.214,0,0,1-.879,2.167,4.948,4.948,0,0,1-1.886,1.167,8.481,8.481,0,0,1-2.314.453A13.729,13.729,0,0,1,652.76,375a21.736,21.736,0,0,1-3.258-.429c-.114-.031-.372-.087-.772-.167a4.134,4.134,0,0,1-1.071-.357,2,2,0,0,0,.343.38c.142.1.3.207.471.334a2.47,2.47,0,0,0,.686.333q-.386.668-.772,1.357t-.814,1.406q1.158.478,2.529,1.143a25.874,25.874,0,0,1,2.7,1.525,19.221,19.221,0,0,1,2.487,1.905,9.568,9.568,0,0,1,1.886,2.31,7.292,7.292,0,0,1,.922,2.714,6.361,6.361,0,0,1-.407,3.073,13.267,13.267,0,0,1-.75,1.572,10.182,10.182,0,0,1-1.136,1.619,17.966,17.966,0,0,1-3.151,2.835,9.147,9.147,0,0,1-3.965,1.6,9.343,9.343,0,0,1-1.609.047,8.215,8.215,0,0,1-1.35-.19q-.6-.143-1.007-.286c-.272-.1-.45-.159-.535-.191a16.137,16.137,0,0,1-1.523-.857,8.746,8.746,0,0,1-1.586-1.285,7.266,7.266,0,0,1-1.286-1.811,6.1,6.1,0,0,1-.622-2.43,7.936,7.936,0,0,1,0-1.167,7.183,7.183,0,0,1,.215-1.31.411.411,0,0,0,.042-.143.4.4,0,0,1,.043-.143,4.4,4.4,0,0,1,.493-1.191c.185-.286.336-.508.45-.667a4.775,4.775,0,0,1,1.372-.881,6.271,6.271,0,0,1,2.015-.452h.343a1.732,1.732,0,0,1,.836.143.433.433,0,0,1,.236.381,1.106,1.106,0,0,1-.214.571q-.257.334-.558.787a7.164,7.164,0,0,0-.557,1.024c-.057.127-.15.342-.279.643s-.257.652-.385,1.049a9.805,9.805,0,0,0-.321,1.31,5.959,5.959,0,0,0-.086,1.429,6.374,6.374,0,0,0,.15.928,2.5,2.5,0,0,0,.365.834,3.116,3.116,0,0,0,.343.429c.085.064.171.127.257.19a1.8,1.8,0,0,0,.342.191,4.193,4.193,0,0,0,1.565.214,6.9,6.9,0,0,0,1.994-.381,9.675,9.675,0,0,0,4.372-3.072,7.58,7.58,0,0,0,1.33-2.334,5.7,5.7,0,0,0,.192-2.406,5.437,5.437,0,0,0-1.393-2.834,11.845,11.845,0,0,0-2.873-2.478,27.1,27.1,0,0,0-3.129-1.667q-.429-.189-.836-.357a6.931,6.931,0,0,0-.75-.262,1.356,1.356,0,0,1-.9-.644,1.547,1.547,0,0,1-.128-.786,2.15,2.15,0,0,1,.343-.953q.6-.952,1.179-1.786t1.093-1.644q.343-.475.644-.881t.557-.786a1.546,1.546,0,0,1,.558-.524,3.465,3.465,0,0,1,.707-.333,2.487,2.487,0,0,1,1.008-.1c.228.033.471.056.728.072s.514.024.772.024a8.952,8.952,0,0,0,.922.047h.922a23.2,23.2,0,0,0,2.573-.143,3.323,3.323,0,0,0,1.436-.572,1.564,1.564,0,0,0,.664-1.477.546.546,0,0,1,.087-.286.431.431,0,0,1,.513-.143,3.447,3.447,0,0,1,1.029.691,1.837,1.837,0,0,1,.558,1.12Z" transform="translate(-639.148 -368.593)" fill="#fff"/>
        <path id="Path_169" data-name="Path 169" d="M673.794,396.852a7.385,7.385,0,0,1,.058-.909,7.08,7.08,0,0,1,.307-1.344c-.088.051-.174.108-.262.157a10.345,10.345,0,0,1-3.065,1.1,8.8,8.8,0,0,1-3.023.048,5.681,5.681,0,0,1-2.4-.953,4.03,4.03,0,0,1-1.565-2.287,8.438,8.438,0,0,1,.022-3.93,22.36,22.36,0,0,1,2.359-5.93,16.212,16.212,0,0,1,3.622-4.811,17.811,17.811,0,0,1,3.751-2.525,5.2,5.2,0,0,1,4.108-.374,3.547,3.547,0,0,0-1.091.057c-1.149.251-1.759,1.4-.789,1.381A4.156,4.156,0,0,1,678.74,378c1.061,1.362,1.688,4.5,1.3,7.672a2.734,2.734,0,0,1,.515-.092c.24-.017.531-.023.859-.014.1,0,.194.02.291.029a13.514,13.514,0,0,0-.591-8.082,5.135,5.135,0,0,0,.329-1.332,4.44,4.44,0,0,0-.987-2.929,6.27,6.27,0,0,0-1.929-1.6,9.484,9.484,0,0,0-2.744-.857,10.428,10.428,0,0,0-4.5.762,15.474,15.474,0,0,0-2.079,1.12,14.825,14.825,0,0,0-2.23,1.762,19.9,19.9,0,0,0-2.273,2.6,25.61,25.61,0,0,0-2.208,3.62,24.085,24.085,0,0,0-2.4,7.765,12.767,12.767,0,0,0,.021,3.048,7.15,7.15,0,0,0,.965,2.811,7.057,7.057,0,0,0,2.208,2.238,10.091,10.091,0,0,0,3.794,1.381,11.619,11.619,0,0,0,3.9.1,10.955,10.955,0,0,0,2.835-.863C673.808,397.038,673.794,396.947,673.794,396.852Z" transform="translate(-639.448 -368.624)" fill="#fff"/>
      </g>
      <g id="Group_1893" data-name="Group 1893" transform="translate(132.54 10.214)">
        <path id="Path_170" data-name="Path 170" d="M701.012,386.1h-4.127L696.1,388h-2.109l3.963-8.89h2.031l3.975,8.89H701.8Zm-.648-1.562-1.41-3.4-1.409,3.4Z" transform="translate(-693.988 -378.958)" fill="#fff"/>
        <path id="Path_171" data-name="Path 171" d="M714.485,379.11V388H712.8l-4.432-5.4V388h-2.031v-8.89h1.7l4.421,5.4v-5.4Z" transform="translate(-694.165 -378.958)" fill="#fff"/>
        <path id="Path_172" data-name="Path 172" d="M726.185,379.11V388H724.5l-4.432-5.4V388h-2.032v-8.89h1.7l4.42,5.4v-5.4Z" transform="translate(-694.334 -378.958)" fill="#fff"/>
        <path id="Path_173" data-name="Path 173" d="M729.732,379.11h2.058V388h-2.058Z" transform="translate(-694.502 -378.958)" fill="#fff"/>
        <path id="Path_174" data-name="Path 174" d="M743.725,379.11,739.878,388h-2.032l-3.835-8.89h2.222l2.706,6.35,2.743-6.35Z" transform="translate(-694.563 -378.958)" fill="#fff"/>
        <path id="Path_175" data-name="Path 175" d="M752.787,386.349V388H745.9v-8.89h6.719v1.651h-4.675v1.931h4.129v1.6h-4.129v2.058Z" transform="translate(-694.734 -378.958)" fill="#fff"/>
        <path id="Path_176" data-name="Path 176" d="M761.5,388l-1.715-2.477H757.9V388h-2.058v-8.89h3.848a4.929,4.929,0,0,1,2.051.394,3.04,3.04,0,0,1,1.34,1.118,3.074,3.074,0,0,1,.47,1.714,2.893,2.893,0,0,1-1.828,2.807L763.712,388Zm-.521-6.814a2.157,2.157,0,0,0-1.409-.4H757.9v3.1h1.676a2.135,2.135,0,0,0,1.409-.406,1.6,1.6,0,0,0,0-2.293Z" transform="translate(-694.877 -378.958)" fill="#fff"/>
        <path id="Path_177" data-name="Path 177" d="M767.469,387.865a4.813,4.813,0,0,1-1.582-.743l.7-1.549a4.76,4.76,0,0,0,1.359.673,5.1,5.1,0,0,0,1.575.253,2.5,2.5,0,0,0,1.3-.26.784.784,0,0,0,.419-.692.657.657,0,0,0-.247-.526,1.853,1.853,0,0,0-.635-.337q-.387-.127-1.048-.279a14.69,14.69,0,0,1-1.664-.483,2.7,2.7,0,0,1-1.111-.775,2.09,2.09,0,0,1-.464-1.422,2.471,2.471,0,0,1,.42-1.4,2.822,2.822,0,0,1,1.263-1,5.161,5.161,0,0,1,2.065-.368,6.846,6.846,0,0,1,1.663.2,4.9,4.9,0,0,1,1.423.584l-.636,1.561a4.961,4.961,0,0,0-2.464-.7,2.312,2.312,0,0,0-1.276.28.853.853,0,0,0-.412.737.72.72,0,0,0,.476.679,7.492,7.492,0,0,0,1.454.439,14.53,14.53,0,0,1,1.665.482,2.764,2.764,0,0,1,1.111.762,2.047,2.047,0,0,1,.463,1.409,2.436,2.436,0,0,1-.425,1.392,2.862,2.862,0,0,1-1.276,1,5.209,5.209,0,0,1-2.071.369A7.284,7.284,0,0,1,767.469,387.865Z" transform="translate(-695.021 -378.956)" fill="#fff"/>
        <path id="Path_178" data-name="Path 178" d="M781.945,386.1h-4.128L777.029,388h-2.108l3.962-8.89h2.032l3.975,8.89h-2.159Zm-.649-1.562-1.409-3.4-1.409,3.4Z" transform="translate(-695.151 -378.958)" fill="#fff"/>
        <path id="Path_179" data-name="Path 179" d="M792.929,388l-1.715-2.477h-1.892V388h-2.058v-8.89h3.849a4.929,4.929,0,0,1,2.051.394,3.039,3.039,0,0,1,1.339,1.118,3.074,3.074,0,0,1,.47,1.714,2.9,2.9,0,0,1-1.829,2.807L795.139,388Zm-.521-6.814a2.159,2.159,0,0,0-1.409-.4h-1.677v3.1H791a2.137,2.137,0,0,0,1.409-.406,1.6,1.6,0,0,0,0-2.293Z" transform="translate(-695.329 -378.958)" fill="#fff"/>
        <path id="Path_180" data-name="Path 180" d="M802.145,384.85V388h-2.058v-3.175l-3.442-5.716h2.185l2.374,3.95,2.375-3.95h2.02Z" transform="translate(-695.464 -378.958)" fill="#fff"/>
      </g>
      <g id="Group_1894" data-name="Group 1894" transform="translate(114.014 18.112)">
        <path id="Path_181" data-name="Path 181" d="M680.67,390.177q-.81,1.19-1.7,2.6t-1.584,2.763a2.425,2.425,0,0,0-.167.464c-.048.182-.016.306.1.369,0,.017.008.024.023.024a.8.8,0,0,0,.572-.095,3.867,3.867,0,0,0,.727-.452,7.438,7.438,0,0,0,.7-.62,3.645,3.645,0,0,0,.5-.6.91.91,0,0,1,.167-.238.543.543,0,0,1,.452-.167c.206.063.31.167.31.31a.652.652,0,0,1-.072.333,8.862,8.862,0,0,1-1.763,2.287,6.034,6.034,0,0,1-1.332.94,2.326,2.326,0,0,1-1.406.274.686.686,0,0,1-.262-.047,1.016,1.016,0,0,1-.453-.333.021.021,0,0,1-.024-.024l-.024-.025a.022.022,0,0,0-.025-.024v-.024l-.024-.024a.021.021,0,0,0-.024-.024V397.8h-.024a.07.07,0,0,0-.024-.047,1.735,1.735,0,0,1-.119-.666,6.189,6.189,0,0,1,.047-.763,6.071,6.071,0,0,1,.286-1.227q.214-.63.477-1.226t.535-1.108q.274-.512.489-.869.285-.523.584-1.024t.607-.976a3.573,3.573,0,0,1-1.989-.644,1.073,1.073,0,0,1-.37-1.167.563.563,0,0,1,.119-.238,1.763,1.763,0,0,1,.179-.2.808.808,0,0,1,.3-.178h.094a.26.26,0,0,1,.191.118,2.62,2.62,0,0,0,.2.287,1.436,1.436,0,0,0,.392.321,3.406,3.406,0,0,0,.667.286,5.344,5.344,0,0,0,1,.2c.189-.286.365-.539.523-.762a6.55,6.55,0,0,1,.429-.548,2.452,2.452,0,0,1,.214-.19,1.285,1.285,0,0,1,.667-.191c.223-.015.476-.02.763-.012a2.516,2.516,0,0,1,.762.131.7.7,0,0,1,.167.119.3.3,0,0,1,.047.167.623.623,0,0,1-.119.286c-.079.111-.174.242-.285.393s-.232.313-.359.488a2.117,2.117,0,0,1,.37-.059,2.106,2.106,0,0,0,.369-.059q2-.405,3.526-.572.643-.072,1.263-.107a8.434,8.434,0,0,1,1.1,0,2.167,2.167,0,0,1,.751.167c.181.088.258.211.226.37a3.514,3.514,0,0,1-.143.643,1.887,1.887,0,0,1-.19.464.523.523,0,0,1-.262.25,1.309,1.309,0,0,1-.56-.035,10.451,10.451,0,0,0-1.2-.143q-.787-.059-2.013-.036a25.059,25.059,0,0,0-3.013.286c-.127.017-.258.033-.392.048l-.393.047c-.461.047-.885.08-1.274.1s-.75.024-1.083.024c.11.032.321.084.631.155A4.522,4.522,0,0,0,680.67,390.177Z" transform="translate(-675.192 -386.969)" fill="#fff"/>
        <path id="Path_182" data-name="Path 182" d="M679.177,398.2c-.032-.016-.047-.032-.047-.047a.068.068,0,0,0-.024-.047,2.1,2.1,0,0,1-.1-.81,5.568,5.568,0,0,1,.215-1.167,13.779,13.779,0,0,1,.928-2.3q.643-1.3,1.37-2.573t1.428-2.334a16.974,16.974,0,0,1,1.132-1.56,2.752,2.752,0,0,1,.214-.19,1.676,1.676,0,0,1,.667-.191c.222-.015.476-.02.762-.012a2.772,2.772,0,0,1,.787.131.684.684,0,0,1,.167.119.3.3,0,0,1,.047.167.63.63,0,0,1-.118.286q-.381.5-1.132,1.548t-1.583,2.334a3.1,3.1,0,0,0-1,.643,3.9,3.9,0,0,0-.6.738,3.359,3.359,0,0,0-.381.858,2.6,2.6,0,0,1,.441-.691q.274-.311.524-.548a3.762,3.762,0,0,1,.441-.37c.127-.087.206-.138.238-.154a4.282,4.282,0,0,1,1.084-.477,2.787,2.787,0,0,1,1.2-.071,1.314,1.314,0,0,1,.738.38,1.184,1.184,0,0,1,.275.726,2.8,2.8,0,0,1-.37,1.3,2.474,2.474,0,0,0-.2.393c-.056.135-.115.266-.179.393-.175.4-.321.758-.441,1.083s-.107.536.036.631q.167.143.441-.024a2.547,2.547,0,0,0,.548-.464,6.844,6.844,0,0,0,.536-.666c.174-.246.325-.456.452-.632a1.107,1.107,0,0,1,.167-.214,1.253,1.253,0,0,1,.215-.131.331.331,0,0,1,.261-.012c.19.047.282.147.274.3a1.134,1.134,0,0,1-.059.345q-.238.429-.632,1.084a8.05,8.05,0,0,1-.916,1.238,5.108,5.108,0,0,1-1.155.965,1.88,1.88,0,0,1-1.323.262,2.174,2.174,0,0,1-.476-.19,1.609,1.609,0,0,1-.358-.31.973.973,0,0,1-.215-.5,2.773,2.773,0,0,1,.037-.846,6.589,6.589,0,0,1,.238-.906,6.945,6.945,0,0,1,.38-.917c.151-.3.3-.6.442-.881v-.024l.047-.095a1.178,1.178,0,0,0,.19-.536.886.886,0,0,0-.047-.321.294.294,0,0,0-.215-.143,1.332,1.332,0,0,0-1.083.333,5.713,5.713,0,0,0-1,1.048,11.744,11.744,0,0,0-.822,1.251q-.356.631-.5.94-.238.525-.4,1a8.565,8.565,0,0,0-.262.881,1.552,1.552,0,0,1-.095.155.349.349,0,0,1-.263.131,1.483,1.483,0,0,1-.643-.107A.817.817,0,0,1,679.177,398.2Z" transform="translate(-675.247 -386.969)" fill="#fff"/>
      </g>
    </g>
  </g>
</svg>
