<svg xmlns="http://www.w3.org/2000/svg" width="414" height="450" viewBox="0 0 414 450">
  <g id="Group_1876" data-name="Group 1876" transform="translate(-557 -212)">
    <g id="Group_1" data-name="Group 1" transform="translate(557 212)">
      <g id="Group_2" data-name="Group 2" transform="translate(0 76.166)">
        <path id="Path_1" data-name="Path 1" d="M173.846,66.59a14.127,14.127,0,0,1,0,6.352q-.719,11.519-7.328,18.066a41.339,41.339,0,0,1-15.72,9.727,70.789,70.789,0,0,1-19.295,3.773,114.347,114.347,0,0,1-18.048-.2A181.53,181.53,0,0,1,86.3,100.735q-1.433-.39-6.432-1.39a34.279,34.279,0,0,1-8.934-2.978,16.868,16.868,0,0,0,2.859,3.178c1.188.793,2.5,1.723,3.93,2.778a20.47,20.47,0,0,0,5.717,2.78q-3.216,5.564-6.432,11.315t-6.79,11.713Q79.866,132.1,91.3,137.66a216.058,216.058,0,0,1,22.511,12.7,161.109,161.109,0,0,1,20.727,15.881A79.965,79.965,0,0,1,150.26,185.5a60.78,60.78,0,0,1,7.682,22.63q1.609,12.116-3.394,25.61a109.788,109.788,0,0,1-6.25,13.1,84.682,84.682,0,0,1-9.47,13.5,149.515,149.515,0,0,1-26.265,23.625,76.125,76.125,0,0,1-33.054,13.3,78.1,78.1,0,0,1-13.4.4,67.315,67.315,0,0,1-11.255-1.588,85.95,85.95,0,0,1-8.4-2.381c-2.269-.795-3.753-1.322-4.467-1.59A134.465,134.465,0,0,1,29.3,284.962a72.6,72.6,0,0,1-13.222-10.72,60.435,60.435,0,0,1-10.72-15.088A50.834,50.834,0,0,1,.18,238.9a65.514,65.514,0,0,1,0-9.727A59.366,59.366,0,0,1,1.967,218.26a3.354,3.354,0,0,0,.358-1.193,3.291,3.291,0,0,1,.358-1.19,36.607,36.607,0,0,1,4.109-9.927q2.319-3.572,3.752-5.558a39.882,39.882,0,0,1,11.435-7.346,52.366,52.366,0,0,1,16.795-3.771h2.859q5,0,6.968,1.19a3.607,3.607,0,0,1,1.965,3.178,9.284,9.284,0,0,1-1.788,4.763q-2.143,2.783-4.644,6.551a59.851,59.851,0,0,0-4.646,8.537q-.721,1.591-2.323,5.359t-3.217,8.737a83.53,83.53,0,0,0-2.679,10.917,49.948,49.948,0,0,0-.715,11.913,53.684,53.684,0,0,0,1.25,7.741,20.831,20.831,0,0,0,3.038,6.949,27,27,0,0,0,2.859,3.574c.714.533,1.429,1.059,2.144,1.587a14.857,14.857,0,0,0,2.858,1.59,34.934,34.934,0,0,0,13.043,1.786,57.539,57.539,0,0,0,16.616-3.176,80.787,80.787,0,0,0,36.448-25.61,63.022,63.022,0,0,0,11.078-19.455,47.466,47.466,0,0,0,1.608-20.05q-1.255-11.314-11.613-23.623a98.694,98.694,0,0,0-23.942-20.647,225.3,225.3,0,0,0-26.086-13.9q-3.577-1.582-6.967-2.976a58.479,58.479,0,0,0-6.255-2.186q-6.08-1.979-7.5-5.358a12.866,12.866,0,0,1-1.073-6.552,17.833,17.833,0,0,1,2.859-7.941q5-7.938,9.828-14.889t9.111-13.7q2.855-3.964,5.361-7.346t4.646-6.551a12.89,12.89,0,0,1,4.644-4.368,28.742,28.742,0,0,1,5.9-2.78,20.682,20.682,0,0,1,8.4-.793q2.855.4,6.074.6c2.144.135,4.288.2,6.432.2a75.2,75.2,0,0,0,7.682.4h7.684a194.214,194.214,0,0,0,21.44-1.191,27.782,27.782,0,0,0,11.969-4.764q5.9-3.964,5.541-12.308a4.554,4.554,0,0,1,.715-2.381q1.42-1.983,4.288-1.193a28.819,28.819,0,0,1,8.575,5.757,15.277,15.277,0,0,1,4.646,9.33Z" transform="translate(0 -50.879)" fill="#fff"/>
        <g id="Group_1-2" data-name="Group 1" transform="translate(170.707 17.931)">
          <path id="Path_2" data-name="Path 2" d="M204.256,271.818a73.284,73.284,0,0,1-25.192.4,47.256,47.256,0,0,1-20.013-7.941q-9.3-6.346-13.043-19.057t.179-32.757q3.93-20.044,19.655-49.431,13.576-25.8,30.2-40.1A148.578,148.578,0,0,1,227.3,101.886c13.569-6.66,25.8-6.292,34.243-3.121a29.425,29.425,0,0,0-9.09.479c-9.58,2.1-14.67,11.676-6.587,11.515,6.4-.129,17.065,3.753,24.314,12.241,8.819,11.327,14.077,37.378,10.86,63.808a24.826,24.826,0,0,1,4.247-.633c2.03-.144,4.479-.183,7.167-.113.894.026,1.716.168,2.572.257,5.128-27.611,2.614-51.813-5.066-67.4,1.478-3.9,2.733-8.983,2.733-11.082,0-10.335-3.215-18.464-8.218-24.42a52.329,52.329,0,0,0-16.079-13.3,78.936,78.936,0,0,0-22.871-7.147q-18.223-1.19-37.52,6.352a129.474,129.474,0,0,0-17.331,9.33,123.712,123.712,0,0,0-18.582,14.691,166.162,166.162,0,0,0-18.937,21.639,211.966,211.966,0,0,0-18.4,30.176q-16.8,34.941-20.008,64.717a106.414,106.414,0,0,0,.179,25.41,59.474,59.474,0,0,0,8.04,23.426,58.858,58.858,0,0,0,18.4,18.661q11.972,7.947,31.625,11.513,17.867,3.173,32.516.795a91.955,91.955,0,0,0,23.644-7.069c-.072-.814-.183-1.611-.183-2.46a61.738,61.738,0,0,1,.47-7.566,60.27,60.27,0,0,1,2.556-11.208c-.73.425-1.448.907-2.186,1.306A86.23,86.23,0,0,1,204.256,271.818Z" transform="translate(-114.071 -62.813)" fill="#fff"/>
          <path id="Path_3" data-name="Path 3" d="M313.71,159.333a17.946,17.946,0,0,0-6.255-1.39,69.832,69.832,0,0,0-9.13,0c-2.472.143-5.018.4-7.557.642.34-.452.706-.945,1-1.337a5.264,5.264,0,0,0,.995-2.381,2.469,2.469,0,0,0-.4-1.39,5.337,5.337,0,0,0-1.39-.992,22.683,22.683,0,0,0-6.549-1.094q-3.577-.095-6.355.1a13.935,13.935,0,0,0-5.558,1.588,21.186,21.186,0,0,0-1.785,1.588c-1.587,1.848-3.54,4.452-5.8,7.676-2.13.4-4.273.805-6.51,1.258a17.292,17.292,0,0,1-3.077.5,17.606,17.606,0,0,0-3.077.5q1.587-2.184,2.976-4.07t2.381-3.277a5.282,5.282,0,0,0,.995-2.381,2.468,2.468,0,0,0-.4-1.39,5.337,5.337,0,0,0-1.39-.992,20.6,20.6,0,0,0-6.352-1.094q-3.572-.095-6.352.1a10.675,10.675,0,0,0-5.558,1.588,20.791,20.791,0,0,0-1.788,1.588,54.641,54.641,0,0,0-3.573,4.566q-1.986,2.783-4.366,6.352a44.921,44.921,0,0,1-8.339-1.687,27.6,27.6,0,0,1-5.558-2.381,11.594,11.594,0,0,1-3.278-2.68,23.212,23.212,0,0,1-1.684-2.383,2.174,2.174,0,0,0-1.591-.993H207.6a6.847,6.847,0,0,0-2.481,1.489,16.376,16.376,0,0,0-1.49,1.687,4.653,4.653,0,0,0-.992,1.986q-1.589,5.558,3.077,9.727t16.575,5.361q-2.578,3.973-5.063,8.139t-4.862,8.537q-1.787,2.977-4.067,7.245t-4.467,9.233q-2.188,4.963-3.973,10.223a50.615,50.615,0,0,0-2.383,10.224,51.212,51.212,0,0,0-.4,6.352,14.435,14.435,0,0,0,.99,5.558.572.572,0,0,1,.2.4h.2v.4a.177.177,0,0,1,.2.2l.2.2v.2a.177.177,0,0,1,.2.2l.2.2a.177.177,0,0,0,.2.2,8.493,8.493,0,0,0,3.774,2.778,5.762,5.762,0,0,0,2.183.4,19.384,19.384,0,0,0,11.713-2.284,50.675,50.675,0,0,0,11.117-7.841c.119-.11.215-.228.334-.338-.056.521-.113,1.046-.137,1.53a17.533,17.533,0,0,0,.795,6.749.584.584,0,0,1,.2.4c0,.132.135.266.4.4a6.868,6.868,0,0,0,2.381,1.687,12.428,12.428,0,0,0,5.361.892,2.9,2.9,0,0,0,2.183-1.092,12.868,12.868,0,0,0,.793-1.289,72.977,72.977,0,0,1,2.183-7.346q1.388-3.969,3.376-8.339,1.19-2.576,4.168-7.84a97.9,97.9,0,0,1,6.851-10.424,47.767,47.767,0,0,1,8.337-8.734q4.467-3.574,9.031-2.78a2.462,2.462,0,0,1,1.788,1.191,7.405,7.405,0,0,1,.4,2.679,9.824,9.824,0,0,1-1.587,4.467l-.4.8v.2q-1.789,3.574-3.674,7.346a58.909,58.909,0,0,0-5.164,15.187,23.128,23.128,0,0,0-.3,7.048,8.016,8.016,0,0,0,1.788,4.169,13.374,13.374,0,0,0,2.976,2.58,17.7,17.7,0,0,0,3.973,1.588,15.6,15.6,0,0,0,11.016-2.185,42.225,42.225,0,0,0,9.629-8.04,67.125,67.125,0,0,0,7.642-10.323q3.279-5.458,5.263-9.033a9.515,9.515,0,0,0,.5-2.877q.095-1.884-2.284-2.482a2.773,2.773,0,0,0-2.183.1,11.7,11.7,0,0,0-1.788,1.092,9.345,9.345,0,0,0-1.39,1.786q-1.589,2.188-3.77,5.262a57.636,57.636,0,0,1-4.467,5.559,21.549,21.549,0,0,1-4.567,3.87q-2.281,1.391-3.674.2-1.783-1.19-.3-5.26t3.674-9.033q.791-1.584,1.489-3.274a21.552,21.552,0,0,1,1.689-3.277q3.374-6.946,3.077-10.819a9.889,9.889,0,0,0-2.284-6.055,11.014,11.014,0,0,0-6.154-3.176,23.265,23.265,0,0,0-10.026.6,35.8,35.8,0,0,0-9.031,3.97c-.269.134-.928.565-1.985,1.291a30.912,30.912,0,0,0-3.674,3.077q-2.085,1.986-4.366,4.566a21.739,21.739,0,0,0-3.673,5.757,28.124,28.124,0,0,1,3.175-7.147,32.667,32.667,0,0,1,4.963-6.154,25.959,25.959,0,0,1,8.34-5.359c4.175-6.446,8.154-12.32,11.955-17.69,5.924-.077,10.908.023,14.846.32a89.207,89.207,0,0,1,10.026,1.19c2.311.466,3.87.565,4.664.3a4.312,4.312,0,0,0,2.183-2.084,15.645,15.645,0,0,0,1.588-3.87,29.24,29.24,0,0,0,1.191-5.361Q315.99,160.429,313.71,159.333Zm-64.324,27.793q-6.056,10.622-11.414,21.44c-1.63,3.292-3.026,6.388-4.243,9.335-.63.729-1.3,1.477-2.106,2.278a62.035,62.035,0,0,1-5.857,5.162,32.3,32.3,0,0,1-6.053,3.771q-2.979,1.391-4.764.793c-.135,0-.2-.063-.2-.2q-1.388-.791-.793-3.077a20.116,20.116,0,0,1,1.39-3.872q5.754-11.316,13.2-23.028t14.194-21.637a37.9,37.9,0,0,1-9.629-.7q-3.867-.895-5.26-1.291,4.167,0,9.034-.2t10.621-.793q1.584-.194,3.274-.4t3.275-.4c1.13-.165,2.167-.291,3.256-.44C254.7,178.045,252.058,182.444,249.386,187.126Z" transform="translate(-72.361 -18.321)" fill="#fff"/>
        </g>
      </g>
      <g id="Group_3" data-name="Group 3" transform="translate(51.429)">
        <path id="Path_4" data-name="Path 4" d="M34.23,39.518l10.559-7.933A18.524,18.524,0,0,1,52.565,28a13.521,13.521,0,0,1,7.571.673,14.323,14.323,0,0,1,6.2,4.9,14.317,14.317,0,0,1,2.978,7.32,13.5,13.5,0,0,1-1.459,7.46,18.52,18.52,0,0,1-5.606,6.47L51.692,62.758ZM58.668,50.61a9.762,9.762,0,0,0,4.1-6.12,8.586,8.586,0,0,0-1.878-6.821,8.587,8.587,0,0,0-6.029-3.7A9.774,9.774,0,0,0,47.839,36.2l-4.913,3.693L53.755,54.3Z" transform="translate(-34.23 13.944)" fill="#fff"/>
        <path id="Path_5" data-name="Path 5" d="M86.605,31.774,74.291,37.3l.2,6.739L68.2,46.856l-.072-31.827L74.19,12.31,97.947,33.516,91.5,36.405Zm-4.022-3.794-8.761-8.27.349,12.042Z" transform="translate(-17.197 6.185)" fill="#fff"/>
        <path id="Path_6" data-name="Path 6" d="M110.7,22.434l2.246,10.05-6.566,1.468-2.266-10.134L89.056,8.035l6.971-1.558,10.4,10.911,4.761-14.3,6.443-1.439Z" transform="translate(-6.682 0.829)" fill="#fff"/>
        <path id="Path_7" data-name="Path 7" d="M127.926,5.942l-9.3.269L118.471.732,143.792,0l.156,5.479-9.3.269.684,23.578-6.727.194Z" transform="translate(8.098)" fill="#fff"/>
        <path id="Path_8" data-name="Path 8" d="M151.226,28.556a14.509,14.509,0,0,1-4.646-6.3,14.7,14.7,0,0,1-.655-7.945,14.713,14.713,0,0,1,3.391-7.218,14.48,14.48,0,0,1,6.552-4.284A17.994,17.994,0,0,1,171.911,5.7a14.546,14.546,0,0,1,5.322,14.254,14.549,14.549,0,0,1-9.964,11.5,16.846,16.846,0,0,1-8.355.476A16.964,16.964,0,0,1,151.226,28.556Zm13.489-2.613a8.514,8.514,0,0,0,3.8-2.67,9.707,9.707,0,0,0,2.018-4.531,9.7,9.7,0,0,0-.31-4.951A8.5,8.5,0,0,0,167.6,9.965a9.723,9.723,0,0,0-9.153-1.651,8.485,8.485,0,0,0-3.8,2.67,9.747,9.747,0,0,0-2.021,4.531,9.736,9.736,0,0,0,.313,4.952,8.489,8.489,0,0,0,2.622,3.827,9.733,9.733,0,0,0,9.155,1.65Z" transform="translate(21.76 1.017)" fill="#fff"/>
        <path id="Path_9" data-name="Path 9" d="M211.167,19.673l-11.61,26.651-5.065-2.2-6.238-21.971-7.047,16.18-6.094-2.653L186.725,9.025l5.1,2.222,6.2,21.954,7.05-16.182Z" transform="translate(36.559 4.535)" fill="#fff"/>
        <path id="Path_10" data-name="Path 10" d="M221.8,52.188l-10.873-7.993-5.766,3.493L199.605,43.6l27.656-15.747,5.353,3.935L225.87,62.914l-5.687-4.181Zm1.319-5.37,2.877-11.7-10.305,6.235Z" transform="translate(48.865 13.997)" fill="#fff"/>
      </g>
      <g id="Group_4" data-name="Group 4" transform="translate(26.969 349.934)">
        <path id="Path_11" data-name="Path 11" d="M38.649,264.383l-9.589-9.5L22.848,257.5l-4.9-4.851L47.612,241.11l4.721,4.676-11.22,29.8L36.1,270.621Zm2.09-5.12L45.3,248.11,34.19,252.774Z" transform="translate(-17.95 -229.525)" fill="#fff"/>
        <path id="Path_12" data-name="Path 12" d="M77.245,267.554,60.728,291.475l-4.545-3.139-1.9-22.758L44.255,280.1l-5.467-3.776L55.3,252.4l4.58,3.161L61.749,278.3l10.027-14.524Z" transform="translate(-7.48 -223.849)" fill="#fff"/>
        <path id="Path_13" data-name="Path 13" d="M97.956,276.39,86.04,302.907,81,300.645,75.017,278.6l-7.234,16.1-6.059-2.723,11.915-26.517,5.075,2.282,5.948,22.022,7.236-16.1Z" transform="translate(3.895 -217.288)" fill="#fff"/>
        <path id="Path_14" data-name="Path 14" d="M94.732,274.536l6.452,1.907-8.246,27.877-6.453-1.908Z" transform="translate(16.268 -212.729)" fill="#fff"/>
        <path id="Path_15" data-name="Path 15" d="M131.174,282.223l-17.062,26.69-6.558-1.061-7.744-30.7,7.177,1.161,5.416,21.909,12.17-19.066Z" transform="translate(22.906 -211.415)" fill="#fff"/>
        <path id="Path_16" data-name="Path 16" d="M146.538,304.444l-.087,5.4-22.5-.365.472-29.067,21.966.356-.089,5.4-15.28-.249-.1,6.313,13.5.218-.084,5.235-13.5-.221-.107,6.727Z" transform="translate(34.963 -209.777)" fill="#fff"/>
        <path id="Path_17" data-name="Path 17" d="M166.893,306.713l-6.8-7.125-.328.05-5.785.914,1.262,8L148.6,309.6l-4.525-28.714,12.428-1.961a16.144,16.144,0,0,1,6.823.23,9.936,9.936,0,0,1,4.9,2.927,10.075,10.075,0,0,1,2.392,5.3,9.473,9.473,0,0,1-4.479,10l7.894,8.216Zm-5.152-21.741a7.049,7.049,0,0,0-4.755-.577l-5.418.856,1.578,10.008,5.416-.852a6.982,6.982,0,0,0,4.347-2.034,5.24,5.24,0,0,0-1.167-7.4Z" transform="translate(44.999 -210.652)" fill="#fff"/>
        <path id="Path_18" data-name="Path 18" d="M177.014,304.1a15.617,15.617,0,0,1-5.669-.709l.6-5.523a15.63,15.63,0,0,0,4.907.718,16.771,16.771,0,0,0,5.155-.807,8.2,8.2,0,0,0,3.765-2.122,2.564,2.564,0,0,0,.6-2.574,2.16,2.16,0,0,0-1.3-1.388,6.152,6.152,0,0,0-2.314-.406q-1.336,0-3.541.192a47.533,47.533,0,0,1-5.661.185,8.846,8.846,0,0,1-4.24-1.283,6.846,6.846,0,0,1-2.883-3.957,8.085,8.085,0,0,1-.116-4.787,9.208,9.208,0,0,1,2.921-4.378,16.854,16.854,0,0,1,6.043-3.235,22.537,22.537,0,0,1,5.379-1.052,16.091,16.091,0,0,1,5.014.379l-.394,5.5a16.18,16.18,0,0,0-8.366.325,7.534,7.534,0,0,0-3.686,2.159,2.786,2.786,0,0,0-.538,2.707,2.36,2.36,0,0,0,2.168,1.633,24.577,24.577,0,0,0,4.963-.111,48.225,48.225,0,0,1,5.663-.185,9.033,9.033,0,0,1,4.226,1.246,6.676,6.676,0,0,1,2.868,3.912,7.916,7.916,0,0,1,.084,4.755,9.336,9.336,0,0,1-2.958,4.392,17,17,0,0,1-6.065,3.241A23.636,23.636,0,0,1,177.014,304.1Z" transform="translate(55.954 -213.538)" fill="#fff"/>
        <path id="Path_19" data-name="Path 19" d="M208.57,283.781l-11.994,6.192.569,6.716-6.127,3.16L189.2,268.076l5.9-3.047,24.882,19.87-6.276,3.238Zm-4.226-3.565-9.2-7.777,1.007,12Z" transform="translate(67.418 -217.506)" fill="#fff"/>
        <path id="Path_20" data-name="Path 20" d="M235.971,274.652l-9.351-3.091-.267.2-4.674,3.525,4.879,6.465-5.373,4.051L203.679,262.6l10.047-7.58a16.187,16.187,0,0,1,6.127-3.011,9.984,9.984,0,0,1,5.7.278,10.1,10.1,0,0,1,4.6,3.552,9.46,9.46,0,0,1,.751,10.927l10.834,3.535Zm-14.777-16.763a7.064,7.064,0,0,0-4.467,1.731l-4.378,3.3,6.1,8.089,4.378-3.3a6.985,6.985,0,0,0,2.88-3.837,5.239,5.239,0,0,0-4.516-5.983Z" transform="translate(74.692 -224.192)" fill="#fff"/>
        <path id="Path_21" data-name="Path 21" d="M244.762,254.554l7.418,7.143-4.664,4.848-7.478-7.2-21.27-4.853,4.954-5.146,14.693,3.363L234.5,238.156l4.58-4.757Z" transform="translate(82.274 -233.399)" fill="#fff"/>
      </g>
      <g id="Group_6" data-name="Group 6" transform="translate(108.66 343.976)">
        <g id="Group_5" data-name="Group 5">
          <path id="Path_22" data-name="Path 22" d="M87.6,236.04a6.127,6.127,0,0,0-5.672-2.855c-2.7,0-4.3,1.219-4.3,3.426,0,2.512,1.98,3.5,5.634,4.3,5.29,1.142,8.032,3.121,8.032,7.841,0,3.92-2.626,7.536-8.944,7.536-4.492,0-7.652-1.37-9.822-4.3l3.463-2.4a7.036,7.036,0,0,0,6.13,2.855c3.615,0,4.757-1.6,4.757-3.5,0-2.093-1.181-3.387-5.747-4.377-5.063-1.065-7.918-3.5-7.918-7.956,0-3.959,2.587-7.27,8.755-7.27,4.186,0,7.117,1.409,8.983,4.3Z" transform="translate(-72.528 -229.341)" fill="#fff"/>
          <path id="Path_23" data-name="Path 23" d="M92.655,255.833H88.239V229.57h4.416Z" transform="translate(-64.634 -229.226)" fill="#fff"/>
          <path id="Path_24" data-name="Path 24" d="M114.137,229.57v26.263h-3.921L99.521,237.981v17.852H95.256V229.57h3.809l10.809,18.079V229.57Z" transform="translate(-61.108 -229.226)" fill="#fff"/>
          <path id="Path_25" data-name="Path 25" d="M126.077,237.83c-.685-3.2-2.4-4.644-5.29-4.644-3.5,0-5.4,2.284-5.4,7.956v3.35c0,5.594,1.9,7.954,5.4,7.954,3.006,0,4.605-1.445,5.29-4.644H130.3c-.876,5.9-4.3,8.489-9.515,8.489-5.86,0-9.82-3.541-9.82-11.8v-3.35c0-8.261,3.96-11.8,9.82-11.8,5.215,0,8.677,2.78,9.553,8.489Z" transform="translate(-53.214 -229.341)" fill="#fff"/>
          <path id="Path_26" data-name="Path 26" d="M142.653,229.57v3.843H130.967v6.928H141.51v3.806H130.967v7.879h11.686v3.807h-16.1V229.57Z" transform="translate(-45.383 -229.226)" fill="#fff"/>
          <path id="Path_27" data-name="Path 27" d="M149.481,255.833h-4.416V234.327l-3.77,2.589v-4.453l4.034-2.892h4.151Z" transform="translate(-37.974 -229.226)" fill="#fff"/>
          <path id="Path_28" data-name="Path 28" d="M162.065,244.8a5.274,5.274,0,0,1-2.515.533c-4.111,0-7.078-3.313-7.078-7.8,0-5.292,3.577-8.184,8.258-8.184,4.722,0,8.3,2.855,8.3,8.107,0,1.941-.953,4.3-2.133,6.89l-5.328,11.61h-4.8Zm-1.336-11.61c-2.4,0-3.842,1.674-3.842,4.225,0,2.512,1.444,4.225,3.842,4.225,2.475,0,3.884-1.713,3.884-4.225C164.613,234.86,163.2,233.186,160.73,233.186Z" transform="translate(-32.359 -229.341)" fill="#fff"/>
          <path id="Path_29" data-name="Path 29" d="M166.155,237.715V229.57h15.453v3.387l-7.88,22.877h-4.605l7.916-22.42h-7.078v4.3Z" transform="translate(-25.484 -229.226)" fill="#fff"/>
          <path id="Path_30" data-name="Path 30" d="M194.822,255.948H178.95v-3.121l9.021-10.582c1.711-1.98,2.665-3.693,2.665-5.52a3.733,3.733,0,0,0-7.463,0h-4.034c0-4.455,3.577-7.385,7.918-7.385,4.492,0,7.957,3.046,7.957,7.461,0,3.311-2.285,5.9-3.959,7.916l-6.2,7.422h9.97Z" transform="translate(-19.055 -229.341)" fill="#fff"/>
        </g>
      </g>
    </g>
  </g>
</svg>
